<mxfile host="app.diagrams.net" modified="2023-03-09T06:24:59.206Z" agent="5.0 (Windows NT 10.0; Win64; x64) AppleWebKit/537.36 (KHTML, like Gecko) Chrome/110.0.0.0 Safari/537.36" etag="1PrU3WxHmgaYIYJ_wHya" version="21.0.4" type="github">
  <diagram name="Page-1" id="74e2e168-ea6b-b213-b513-2b3c1d86103e">
    <mxGraphModel dx="1434" dy="764" grid="0" gridSize="10" guides="1" tooltips="1" connect="1" arrows="1" fold="1" page="1" pageScale="1" pageWidth="1100" pageHeight="850" background="none" math="0" shadow="0">
      <root>
        <mxCell id="0" />
        <mxCell id="1" parent="0" />
        <mxCell id="tFN0skg3fEce80HwhT8k-1" value="报价系统门户" style="shape=umlLifeline;perimeter=lifelinePerimeter;whiteSpace=wrap;html=1;container=1;dropTarget=0;collapsible=0;recursiveResize=0;outlineConnect=0;portConstraint=eastwest;newEdgeStyle={&quot;edgeStyle&quot;:&quot;elbowEdgeStyle&quot;,&quot;elbow&quot;:&quot;vertical&quot;,&quot;curved&quot;:0,&quot;rounded&quot;:0};" vertex="1" parent="1">
          <mxGeometry x="250" y="125" width="100" height="445" as="geometry" />
        </mxCell>
        <mxCell id="tFN0skg3fEce80HwhT8k-5" value="" style="html=1;points=[];perimeter=orthogonalPerimeter;outlineConnect=0;targetShapes=umlLifeline;portConstraint=eastwest;newEdgeStyle={&quot;edgeStyle&quot;:&quot;elbowEdgeStyle&quot;,&quot;elbow&quot;:&quot;vertical&quot;,&quot;curved&quot;:0,&quot;rounded&quot;:0};" vertex="1" parent="tFN0skg3fEce80HwhT8k-1">
          <mxGeometry x="45" y="75" width="10" height="40" as="geometry" />
        </mxCell>
        <mxCell id="tFN0skg3fEce80HwhT8k-6" value="1.登录返回token信息" style="html=1;align=left;spacingLeft=2;endArrow=block;rounded=0;edgeStyle=orthogonalEdgeStyle;curved=0;rounded=0;" edge="1" target="tFN0skg3fEce80HwhT8k-5" parent="tFN0skg3fEce80HwhT8k-1">
          <mxGeometry relative="1" as="geometry">
            <mxPoint x="60" y="55" as="sourcePoint" />
            <Array as="points">
              <mxPoint x="90" y="85" />
            </Array>
          </mxGeometry>
        </mxCell>
        <mxCell id="tFN0skg3fEce80HwhT8k-11" value="" style="html=1;points=[];perimeter=orthogonalPerimeter;outlineConnect=0;targetShapes=umlLifeline;portConstraint=eastwest;newEdgeStyle={&quot;edgeStyle&quot;:&quot;elbowEdgeStyle&quot;,&quot;elbow&quot;:&quot;vertical&quot;,&quot;curved&quot;:0,&quot;rounded&quot;:0};" vertex="1" parent="tFN0skg3fEce80HwhT8k-1">
          <mxGeometry x="45" y="220" width="10" height="70" as="geometry" />
        </mxCell>
        <mxCell id="tFN0skg3fEce80HwhT8k-21" value="" style="html=1;points=[];perimeter=orthogonalPerimeter;outlineConnect=0;targetShapes=umlLifeline;portConstraint=eastwest;newEdgeStyle={&quot;edgeStyle&quot;:&quot;elbowEdgeStyle&quot;,&quot;elbow&quot;:&quot;vertical&quot;,&quot;curved&quot;:0,&quot;rounded&quot;:0};" vertex="1" parent="tFN0skg3fEce80HwhT8k-1">
          <mxGeometry x="45" y="155" width="10" height="40" as="geometry" />
        </mxCell>
        <mxCell id="tFN0skg3fEce80HwhT8k-4" style="edgeStyle=orthogonalEdgeStyle;rounded=0;orthogonalLoop=1;jettySize=auto;html=1;" edge="1" parent="1" source="tFN0skg3fEce80HwhT8k-2">
          <mxGeometry relative="1" as="geometry">
            <mxPoint x="250" y="140" as="targetPoint" />
          </mxGeometry>
        </mxCell>
        <mxCell id="tFN0skg3fEce80HwhT8k-2" value="用户登录" style="shape=umlActor;verticalLabelPosition=bottom;verticalAlign=top;html=1;" vertex="1" parent="1">
          <mxGeometry x="130" y="110" width="30" height="60" as="geometry" />
        </mxCell>
        <mxCell id="tFN0skg3fEce80HwhT8k-7" value="子系统" style="shape=umlLifeline;perimeter=lifelinePerimeter;whiteSpace=wrap;html=1;container=1;dropTarget=0;collapsible=0;recursiveResize=0;outlineConnect=0;portConstraint=eastwest;newEdgeStyle={&quot;edgeStyle&quot;:&quot;elbowEdgeStyle&quot;,&quot;elbow&quot;:&quot;vertical&quot;,&quot;curved&quot;:0,&quot;rounded&quot;:0};" vertex="1" parent="1">
          <mxGeometry x="530" y="120" width="100" height="450" as="geometry" />
        </mxCell>
        <mxCell id="tFN0skg3fEce80HwhT8k-8" value="" style="html=1;points=[];perimeter=orthogonalPerimeter;outlineConnect=0;targetShapes=umlLifeline;portConstraint=eastwest;newEdgeStyle={&quot;edgeStyle&quot;:&quot;elbowEdgeStyle&quot;,&quot;elbow&quot;:&quot;vertical&quot;,&quot;curved&quot;:0,&quot;rounded&quot;:0};" vertex="1" parent="tFN0skg3fEce80HwhT8k-7">
          <mxGeometry x="45" y="160" width="10" height="80" as="geometry" />
        </mxCell>
        <mxCell id="tFN0skg3fEce80HwhT8k-17" value="" style="html=1;points=[];perimeter=orthogonalPerimeter;outlineConnect=0;targetShapes=umlLifeline;portConstraint=eastwest;newEdgeStyle={&quot;edgeStyle&quot;:&quot;elbowEdgeStyle&quot;,&quot;elbow&quot;:&quot;vertical&quot;,&quot;curved&quot;:0,&quot;rounded&quot;:0};" vertex="1" parent="tFN0skg3fEce80HwhT8k-7">
          <mxGeometry x="45" y="270" width="10" height="40" as="geometry" />
        </mxCell>
        <mxCell id="tFN0skg3fEce80HwhT8k-18" value="4.判断认证结果，决定是否完成自动登录" style="html=1;align=left;spacingLeft=2;endArrow=block;rounded=0;edgeStyle=orthogonalEdgeStyle;curved=0;rounded=0;" edge="1" parent="tFN0skg3fEce80HwhT8k-7">
          <mxGeometry relative="1" as="geometry">
            <mxPoint x="50" y="277" as="sourcePoint" />
            <Array as="points">
              <mxPoint x="80" y="307" />
            </Array>
            <mxPoint x="55" y="307" as="targetPoint" />
          </mxGeometry>
        </mxCell>
        <mxCell id="tFN0skg3fEce80HwhT8k-9" value="2.携带token跳转子系统" style="html=1;verticalAlign=bottom;endArrow=block;edgeStyle=elbowEdgeStyle;elbow=vertical;curved=0;rounded=0;" edge="1" target="tFN0skg3fEce80HwhT8k-8" parent="1" source="tFN0skg3fEce80HwhT8k-21">
          <mxGeometry relative="1" as="geometry">
            <mxPoint x="310" y="290" as="sourcePoint" />
          </mxGeometry>
        </mxCell>
        <mxCell id="tFN0skg3fEce80HwhT8k-12" value="携带AppId、AppSecret和token" style="html=1;verticalAlign=bottom;endArrow=block;edgeStyle=elbowEdgeStyle;elbow=vertical;curved=0;rounded=0;" edge="1" target="tFN0skg3fEce80HwhT8k-11" parent="1" source="tFN0skg3fEce80HwhT8k-8">
          <mxGeometry relative="1" as="geometry">
            <mxPoint x="570" y="330" as="sourcePoint" />
          </mxGeometry>
        </mxCell>
        <mxCell id="tFN0skg3fEce80HwhT8k-13" value="返回认证结果" style="html=1;verticalAlign=bottom;endArrow=open;endSize=8;edgeStyle=elbowEdgeStyle;elbow=vertical;curved=0;rounded=0;" edge="1" source="tFN0skg3fEce80HwhT8k-11" parent="1">
          <mxGeometry relative="1" as="geometry">
            <mxPoint x="580" y="405" as="targetPoint" />
            <Array as="points">
              <mxPoint x="440" y="398" />
            </Array>
          </mxGeometry>
        </mxCell>
        <mxCell id="tFN0skg3fEce80HwhT8k-15" value="&lt;h1&gt;说明&lt;/h1&gt;&lt;p&gt;报价系统提前分配三方系统&lt;br&gt;AppId和AppSecret&lt;/p&gt;" style="text;html=1;strokeColor=#b85450;fillColor=#f8cecc;spacing=5;spacingTop=-20;whiteSpace=wrap;overflow=hidden;rounded=0;" vertex="1" parent="1">
          <mxGeometry x="750" y="120" width="190" height="120" as="geometry" />
        </mxCell>
        <mxCell id="tFN0skg3fEce80HwhT8k-16" value="3.请求报价系统认证token是否有效" style="text;html=1;strokeColor=none;fillColor=none;align=center;verticalAlign=middle;whiteSpace=wrap;rounded=0;" vertex="1" parent="1">
          <mxGeometry x="590" y="310" width="130" height="30" as="geometry" />
        </mxCell>
      </root>
    </mxGraphModel>
  </diagram>
</mxfile>
